# xmcd
#
# Track frame offsets:
#	150
#	17694
#	32074
#	45335
#	60503
#	73999
#	87697
#	102113
#	114599
#	131251
#	144976
#	159168
#	174112
#	190893
#	205685
#	218749
#	232949
#	245612
#	260348
#	274116
#
# Disc length: 3834 seconds
#
# Revision: 0
# Processed by: cddbd v1.5.1PL0 Copyright (c) Steve Scherf et al.
# Submitted via: dBpowerAMP V4.0
#
DISCID=0b0ef814
DTITLE=Chico Rey and Paraná - As 20 Mais
DYEAR=1900
DGENRE=Country
TTITLE0=Quem Será Seu Outro Amor
TTITLE1=Leão Domado
TTITLE2=Alma Transparente
TTITLE3=Canarinho Prisioneiro
TTITLE4=Amor Rebelde
TTITLE5=Sé Você
TTITLE6=Tranque a porta e me beije
TTITLE7=Perder Você é Abraçar a Solidão
TTITLE8=Você Não Sabe Amar
TTITLE9=Encanto e Magia
TTITLE10=Outros Caminhos Sem Você
TTITLE11=Quem Bate Nunca Se Lembra
TTITLE12=Sinal de Vida
TTITLE13=Você Me Enganou
TTITLE14=Disfarça
TTITLE15=Caros Amantes
TTITLE16=Chance de Ouro
TTITLE17=Feiticeiro
TTITLE18=Saco de Ouro
TTITLE19=Capricho de Destino
EXTD=Rahz
EXTT0=
EXTT1=
EXTT2=
EXTT3=
EXTT4=
EXTT5=
EXTT6=
EXTT7=
EXTT8=
EXTT9=
EXTT10=
EXTT11=
EXTT12=
EXTT13=
EXTT14=
EXTT15=
EXTT16=
EXTT17=
EXTT18=
EXTT19=
PLAYORDER=
